<?xml version="1.0" standalone="no"?>
<!DOCTYPE svg PUBLIC "-//W3C//DTD SVG 20010904//EN"
 "http://www.w3.org/TR/2001/REC-SVG-20010904/DTD/svg10.dtd">
<svg version="1.0" xmlns="http://www.w3.org/2000/svg"
 width="600.000000pt" height="600.000000pt" viewBox="0 0 600.000000 600.000000"
 preserveAspectRatio="xMidYMid meet">
<metadata>
Created by potrace 1.14, written by Peter Selinger 2001-2017
</metadata>
<g transform="translate(0.000000,600.000000) scale(0.100000,-0.100000)"
fill="#000000" stroke="none">
<path d="M1615 5304 c-289 -41 -499 -139 -667 -312 -186 -191 -282 -416 -332
-781 -8 -57 -16 -104 -18 -105 -2 -2 -49 -17 -106 -35 -174 -54 -187 -62 -220
-128 -68 -135 -82 -193 -82 -339 l0 -134 173 0 172 0 -47 -382 c-81 -650 -258
-2096 -258 -2107 0 -8 122 -11 399 -11 l399 0 6 37 c3 21 57 573 121 1228 64
655 118 1200 121 1213 l4 22 334 0 c258 0 335 3 339 13 3 6 6 1 6 -13 l1 -26
161 14 c88 8 162 12 164 10 2 -2 -52 -377 -120 -833 -166 -1110 -152 -1005
-135 -1015 7 -5 43 -14 79 -22 133 -27 681 -11 728 21 5 3 49 368 97 811 l88
805 44 66 c58 87 160 183 226 214 122 57 227 9 259 -118 31 -124 -34 -719
-167 -1541 -20 -124 -35 -229 -32 -231 2 -2 33 -12 69 -22 115 -32 669 -20
727 16 6 3 51 363 102 816 l91 810 35 52 c49 72 170 185 229 213 108 52 200
32 244 -53 57 -112 30 -431 -101 -1175 l-51 -292 18 -66 c33 -121 127 -296
203 -376 34 -36 39 -38 98 -38 148 0 522 66 670 118 70 24 81 32 101 67 59
104 122 332 123 438 l0 58 -57 -6 c-325 -35 -328 -35 -318 10 9 39 94 622 114
785 70 553 33 787 -154 976 -113 114 -247 169 -440 181 -311 18 -589 -131
-735 -394 l-24 -43 -27 70 c-54 140 -156 248 -290 308 -101 46 -161 57 -304
56 -159 0 -236 -17 -363 -80 -118 -59 -227 -159 -313 -287 l-61 -91 6 44 c21
156 36 324 29 331 -4 4 -46 18 -93 31 -71 19 -110 23 -235 23 -84 0 -176 -6
-210 -13 -105 -23 -226 -65 -289 -102 -54 -31 -65 -43 -93 -100 -18 -36 -41
-99 -51 -140 l-20 -75 0 184 c0 101 -4 187 -9 192 -5 5 -148 10 -319 11 l-310
3 18 150 c10 83 27 186 38 230 27 111 90 235 141 278 37 32 124 65 137 52 3
-3 0 -45 -6 -94 -18 -133 -21 -124 61 -164 125 -61 301 -108 460 -122 l68 -6
28 63 c83 183 161 516 161 685 l0 42 -79 25 c-218 69 -374 96 -571 101 -85 2
-168 1 -185 -1z"/>
</g>
</svg>
